<svg width="174" height="34" viewBox="0 0 174 34" fill="none" xmlns="http://www.w3.org/2000/svg">
<g clip-path="url(#clip0_51_80)">
<path d="M16.4702 19.7598C15.9963 19.7598 15.6091 20.1454 15.6091 20.6174C15.6091 21.0951 15.9963 21.4808 16.4702 21.4808C16.9499 21.4808 17.337 21.0951 17.337 20.6174C17.337 20.1454 16.9499 19.7598 16.4702 19.7598Z" fill="#064E31"/>
<path d="M16.4702 14.2337C16.9499 14.2337 17.337 13.8481 17.337 13.3703C17.337 12.8983 16.9499 12.5127 16.4702 12.5127C15.9963 12.5127 15.6091 12.8983 15.6091 13.3703C15.6091 13.8481 15.9963 14.2337 16.4702 14.2337Z" fill="#064E31"/>
<path d="M33.1311 10.1646C33.1311 4.82863 28.791 0.5 23.4281 0.5C20.7466 0.5 18.3195 1.58216 16.5684 3.33203C14.8116 1.58216 12.3844 0.5 9.70294 0.5C4.34581 0.5 0 4.82863 0 10.1646C0 12.8354 1.08645 15.253 2.84327 16.9971C1.08645 18.7527 0 21.1646 0 23.8354C0 29.1714 4.34581 33.5 9.70294 33.5C12.3844 33.5 14.8116 32.4179 16.5627 30.668C18.3195 32.4179 20.7466 33.5 23.4223 33.5C28.7794 33.5 33.1252 29.1714 33.1252 23.8354C33.1252 21.1646 32.0388 18.7527 30.282 17.0029C32.0445 15.253 33.1311 12.8354 33.1311 10.1646ZM16.5627 3.33203C17.7935 3.33203 18.984 3.4932 20.1167 3.79827L16.5627 7.3383L16.5684 7.34406H16.5627H16.5568L16.5627 7.3383L13.0085 3.79827C14.147 3.4932 15.3375 3.33203 16.5627 3.33203ZM6.86546 17.0029L3.31137 20.5429C3.00508 19.4147 2.84327 18.2289 2.84327 17.0029C2.84327 15.7768 3.00508 14.5911 3.31137 13.4628L6.86546 17.0029ZM9.70294 17.0029C9.70294 14.4702 11.0899 12.2541 13.1415 11.0798C14.0083 10.5848 14.9849 10.2682 16.0367 10.1876C16.0425 10.1876 16.0483 10.1876 16.0541 10.1876C16.2217 10.1761 16.395 10.1703 16.5627 10.1703C16.6146 10.1703 16.6609 10.1703 16.7129 10.1703C18.383 10.297 19.7007 11.6784 19.7007 13.3765C19.7007 15.1378 18.2732 16.5712 16.5106 16.5942C16.4991 16.5942 16.4875 16.5942 16.4759 16.5942C16.4643 16.5942 16.4529 16.5942 16.4413 16.5942C15.8171 16.5999 15.2277 16.7438 14.696 17.0029C13.3495 17.659 12.4249 19.0348 12.4249 20.6292C12.4249 21.4927 12.6964 22.287 13.153 22.9375C11.0899 21.7517 9.70294 19.5356 9.70294 17.0029ZM16.5627 30.668C15.3317 30.668 14.1412 30.5068 13.0085 30.2017L16.5627 26.6617L16.5568 26.656H16.5627H16.5684L16.5627 26.6617L20.1167 30.2017C18.984 30.5068 17.7935 30.668 16.5627 30.668ZM19.6718 23.0928C18.7413 23.5649 17.6837 23.8297 16.5684 23.8297H16.4702C16.4413 23.8297 16.4124 23.8297 16.3893 23.8297C16.3545 23.8297 16.3199 23.8297 16.2852 23.8239C16.2737 23.8239 16.2621 23.8239 16.2563 23.8239C14.5747 23.7145 13.2455 22.3216 13.2455 20.6178C13.2455 18.8449 14.6902 17.4001 16.4759 17.4001C17.1174 17.4001 17.7184 17.2562 18.2559 16.9914C19.5966 16.3351 20.527 14.9595 20.527 13.365C20.527 12.4383 20.2092 11.5806 19.6775 10.8956C21.9082 12.0238 23.4339 14.332 23.4339 16.9914C23.4281 19.6622 21.9024 21.9704 19.6718 23.0928ZM29.8254 20.5429L26.2713 17.0029L26.2656 17.0086V17.0029H26.2713L29.8254 13.4628C30.1317 14.5911 30.2936 15.7768 30.2936 17.0029C30.2877 18.2232 30.1259 19.4147 29.8254 20.5429Z" fill="#064E31"/>
<path d="M12.419 20.6181C12.419 19.0294 13.3437 17.6479 14.6902 16.9917C15.216 16.7327 15.8055 16.5888 16.4354 16.583C16.447 16.583 16.4585 16.583 16.4701 16.583C16.4817 16.583 16.4932 16.583 16.5047 16.583C18.2731 16.56 19.6948 15.1325 19.6948 13.3653C19.6948 11.673 18.3772 10.2858 16.707 10.1592C16.6608 10.1592 16.6088 10.1592 16.5568 10.1592C16.3834 10.1592 16.2158 10.1649 16.0482 10.1765C16.0425 10.1765 16.0367 10.1765 16.0309 10.1765C14.9849 10.257 14.0025 10.5679 13.1356 11.0686C11.0783 12.2486 9.69714 14.459 9.69714 16.9917C9.69714 19.5301 11.0841 21.7405 13.1414 22.9205C12.6906 22.2758 12.419 21.4815 12.419 20.6181ZM16.4701 12.5134C16.9498 12.5134 17.3369 12.899 17.3369 13.3711C17.3369 13.8431 16.9498 14.2345 16.4701 14.2345C15.9962 14.2345 15.609 13.8488 15.609 13.3711C15.609 12.899 15.9962 12.5134 16.4701 12.5134Z" fill="#D2AF6B"/>
<path d="M19.6717 10.9014C20.2034 11.5864 20.5213 12.4383 20.5213 13.3708C20.5213 14.9595 19.5967 16.3352 18.2502 16.9972C17.7127 17.2619 17.1116 17.4058 16.4702 17.4058C14.6903 17.4058 13.2397 18.8449 13.2397 20.6235C13.2397 22.3274 14.5689 23.7203 16.2506 23.8297C16.2564 23.8297 16.2679 23.8297 16.2795 23.8297C16.3141 23.8297 16.3489 23.8355 16.3835 23.8355C16.4124 23.8355 16.4413 23.8355 16.4644 23.8355H16.5569C17.678 23.8355 18.7298 23.5707 19.6602 23.0987C21.8909 21.9704 23.4166 19.668 23.4166 17.0029C23.4281 14.3378 21.9025 12.0354 19.6717 10.9014ZM16.4702 21.4812C15.9963 21.4812 15.6091 21.0955 15.6091 20.6178C15.6091 20.1458 15.9963 19.7601 16.4702 19.7601C16.9499 19.7601 17.3371 20.1458 17.3371 20.6178C17.3371 21.0955 16.9499 21.4812 16.4702 21.4812Z" fill="#D2AF6B"/>
<path d="M6.8661 17.0098V16.9971L6.85962 17.0035L6.8661 17.0098Z" fill="#064E31"/>
<path d="M16.5686 7.33789H16.5626V7.3439H16.5686V7.33789Z" fill="#064E31"/>
<path d="M16.569 26.6621H16.5626V26.6685H16.569V26.6621Z" fill="#064E31"/>
<path d="M26.2656 17.0098L26.2721 17.0035L26.2656 16.9971V17.0098Z" fill="#064E31"/>
<path d="M13.0143 30.207C14.147 30.5121 15.3375 30.6733 16.5684 30.6733C17.7994 30.6733 18.9899 30.5121 20.1225 30.207L16.5684 26.667L13.0143 30.207Z" fill="white"/>
<path d="M2.84326 17.0029C2.84326 18.229 3.00507 19.4148 3.31136 20.543L6.86545 17.0029L3.31136 13.4629C3.00507 14.5911 2.84326 15.7769 2.84326 17.0029Z" fill="white"/>
<path d="M20.1225 3.79829C18.9899 3.49321 17.7935 3.33203 16.5684 3.33203C15.3432 3.33203 14.147 3.49321 13.0143 3.79829L16.5684 7.33832L20.1225 3.79829Z" fill="white"/>
<path d="M26.2714 17.0029L29.8254 20.543C30.1318 19.4148 30.2936 18.229 30.2936 17.0029C30.2936 15.7769 30.1318 14.5911 29.8254 13.4629L26.2714 17.0029Z" fill="white"/>
<path d="M41.4124 25.2512L46.9198 16.6745L41.8862 8.75977H45.6541L48.8095 13.7792L52.011 8.75977H55.7327L50.6934 16.6457L56.2008 25.2512H52.3809L48.7806 19.5641L45.186 25.2512H41.4124Z" fill="#2D2A26"/>
<path d="M69.8508 25.2513L68.487 21.4925H61.9337L60.5698 25.2513H57.0735L63.4246 8.76562H66.996L73.3471 25.2513H69.8508ZM62.9739 18.4244H67.4179L65.2103 12.392L62.9739 18.4244Z" fill="#2D2A26"/>
<path d="M87.0026 25.2513L85.639 21.4925H79.0856L77.7218 25.2513H74.2255L80.5766 8.76562H84.148L90.5048 25.2513H87.0026ZM80.1316 18.4244H84.5757L82.3682 12.392L80.1316 18.4244Z" fill="#2D2A26"/>
<path d="M95.5157 25.2512H92.2157V8.75977H95.5157V15.3851H101.792V8.75977H105.091V25.2512H101.792V18.4531H95.5157V25.2512Z" fill="#2D2A26"/>
<path d="M120.203 25.2512H115.141V8.75977H124.791V11.8278H118.313V15.2642H120.62C122.359 15.2642 123.67 15.6786 124.566 16.5017C125.463 17.3249 125.907 18.5279 125.907 20.1109C125.907 21.8608 125.398 23.1501 124.382 23.9906C123.37 24.8309 121.971 25.2512 120.203 25.2512ZM118.319 17.9811V22.4306H119.66C120.602 22.4306 121.341 22.281 121.879 21.9759C122.416 21.6708 122.688 21.0837 122.688 20.2088C122.688 19.3338 122.416 18.7467 121.879 18.4416C121.341 18.1365 120.602 17.9868 119.66 17.9868H118.319V17.9811Z" fill="#2D2A26"/>
<path d="M139.257 25.2513L137.893 21.4925H131.339L129.975 25.2513H126.479L132.831 8.76562H136.401L142.753 25.2513H139.257ZM132.38 18.4244H136.824L134.616 12.392L132.38 18.4244Z" fill="#2D2A26"/>
<path d="M147.764 25.2512H144.464V8.75977H147.764V15.3851H154.04V8.75977H157.339V25.2512H154.04V18.4531H147.764V25.2512Z" fill="#2D2A26"/>
<path d="M163.806 25.2512H160.5V8.75977H163.806V15.1894L169.758 8.75977H174L167.499 15.7074L173.827 25.2512H169.932L165.245 18.079L163.806 19.6619V25.2512Z" fill="#2D2A26"/>
</g>
<defs>
<clipPath id="clip0_51_80">
<rect width="174" height="33" fill="white" transform="translate(0 0.5)"/>
</clipPath>
</defs>
</svg>
